<svg width="32" height="32" viewBox="0 0 32 32" fill="none" xmlns="http://www.w3.org/2000/svg">
<g id="Icons / security-check">
<path id="Vector" d="M15.9975 2.6665C11.9872 2.6665 9.38683 5.35849 6.31154 6.3397C5.06111 6.73868 4.43588 6.93816 4.18286 7.21937C3.92983 7.50058 3.85574 7.9115 3.70755 8.73334C2.12183 17.5278 5.58779 25.6585 13.8537 28.8232C14.7418 29.1632 15.1858 29.3332 16.0019 29.3332C16.8179 29.3332 17.2621 29.1632 18.1501 28.8232C26.4154 25.6584 29.8781 17.5278 28.2919 8.73334C28.1437 7.91136 28.0695 7.50037 27.8165 7.21916C27.5634 6.93794 26.9382 6.73857 25.6878 6.33982C22.6113 5.3587 20.0081 2.6665 15.9975 2.6665Z" fill="#1A9959" stroke="#1A9959" stroke-width="1.5" stroke-linecap="round" stroke-linejoin="round"/>
<path id="Vector_2" d="M12 17.3333C12 17.3333 13.3333 17.3333 14.6667 20C14.6667 20 18.902 13.3333 22.6667 12" stroke="white" stroke-width="1.5" stroke-linecap="round" stroke-linejoin="round"/>
</g>
</svg>
