<svg width="20" height="20" viewBox="0 0 20 20" fill="none" xmlns="http://www.w3.org/2000/svg">
<g id="Social Media">
<path id="LinkedIn Logomark" d="M17.854 15.3108C17.583 15.3134 17.3241 15.4232 17.1338 15.6162C16.9436 15.8092 16.8375 16.0697 16.8388 16.3407C16.8401 16.6117 16.9487 16.8711 17.1408 17.0623C17.3329 17.2535 17.5928 17.3608 17.8638 17.3608C18.1348 17.3608 18.3948 17.2535 18.5869 17.0623C18.779 16.8711 18.8875 16.6117 18.8889 16.3407C18.8902 16.0697 18.7841 15.8092 18.5939 15.6162C18.4036 15.4232 18.1447 15.3134 17.8737 15.3108H17.854ZM17.854 17.2434C17.6762 17.2464 17.5016 17.1966 17.3522 17.1003C17.2027 17.004 17.0852 16.8656 17.0145 16.7025C16.9437 16.5394 16.9229 16.359 16.9547 16.1841C16.9865 16.0092 17.0694 15.8476 17.193 15.7199C17.3166 15.5921 17.4753 15.5038 17.649 15.4662C17.8228 15.4287 18.0038 15.4435 18.1691 15.5087C18.3345 15.574 18.4767 15.6869 18.5779 15.833C18.6791 15.9792 18.7347 16.152 18.7377 16.3298V16.3449C18.7427 16.578 18.6549 16.8036 18.4935 16.972C18.3322 17.1405 18.1106 17.2379 17.8774 17.243H17.8542M13.9193 15.0307H11.692V11.5427C11.692 10.7109 11.6771 9.64017 10.5335 9.64017C9.37349 9.64017 9.19599 10.5464 9.19599 11.4821V15.0305H6.96868V7.85763H9.1069V8.83788H9.13683C9.35081 8.472 9.66003 8.17102 10.0315 7.96698C10.4031 7.76294 10.823 7.66349 11.2465 7.67921C13.504 7.67921 13.9202 9.16409 13.9202 11.0958L13.9193 15.0307ZM4.45553 6.87714C4.19989 6.87719 3.94998 6.80143 3.7374 6.65944C3.52481 6.51745 3.35911 6.31562 3.26124 6.07945C3.16337 5.84329 3.13773 5.58341 3.18756 5.33267C3.23738 5.08193 3.36044 4.8516 3.54117 4.67081C3.72191 4.49001 3.95219 4.36687 4.20291 4.31695C4.45363 4.26703 4.71352 4.29258 4.94972 4.39037C5.18592 4.48815 5.38781 4.65378 5.52988 4.86632C5.67194 5.07885 5.74779 5.32873 5.74783 5.58437C5.74786 5.75411 5.71447 5.92219 5.64954 6.07902C5.58461 6.23585 5.48943 6.37836 5.36943 6.4984C5.24943 6.61845 5.10695 6.71368 4.95015 6.77867C4.79334 6.84365 4.62527 6.87711 4.45553 6.87714ZM5.56919 15.0307H3.33955V7.85763H5.56919V15.0307ZM15.0297 2.22368H2.22033C1.92959 2.2204 1.64945 2.33268 1.44145 2.53584C1.23346 2.73901 1.11463 3.01644 1.11108 3.30718V16.1697C1.11451 16.4606 1.23326 16.7382 1.44125 16.9416C1.64924 17.1449 1.92945 17.2574 2.22033 17.2543H15.0297C15.3212 17.258 15.6021 17.1458 15.811 16.9424C16.0198 16.7391 16.1393 16.4611 16.1433 16.1697V3.30625C16.1392 3.01494 16.0196 2.73719 15.8108 2.53403C15.6019 2.33087 15.321 2.21891 15.0297 2.22275M18.0166 16.4008C18.0548 16.4012 18.0926 16.3937 18.1277 16.3789C18.1629 16.364 18.1946 16.3421 18.2209 16.3145C18.2472 16.2869 18.2676 16.2542 18.2807 16.2184C18.2939 16.1826 18.2995 16.1444 18.2974 16.1063C18.2974 15.8975 18.1714 15.7978 17.9129 15.7978H17.4953V16.891H17.6524V16.4145H17.8454L17.8498 16.4203L18.1493 16.891H18.3173L17.995 16.4038L18.0166 16.4008ZM17.8349 16.2913H17.6528V15.9217H17.8837C18.0029 15.9217 18.1389 15.9412 18.1389 16.0973C18.1389 16.2769 18.0013 16.2913 17.834 16.2913" fill="white"/>
</g>
</svg>
