<svg width="20" height="20" viewBox="0 0 20 20" fill="none" xmlns="http://www.w3.org/2000/svg">
<g id="Social Media">
<path id="Discord Logomark" d="M16.1706 4.46141C15.0025 3.92667 13.7695 3.5473 12.5029 3.33301C12.3295 3.64285 12.1727 3.96163 12.033 4.28802C10.6839 4.08472 9.31183 4.08472 7.96265 4.28802C7.8229 3.96166 7.66608 3.64288 7.49283 3.33301C6.2254 3.54911 4.99153 3.92938 3.82234 4.4642C1.50119 7.89834 0.871965 11.2472 1.18658 14.5485C2.5459 15.5528 4.06737 16.3166 5.68485 16.8067C6.04906 16.3168 6.37133 15.7972 6.64826 15.2532C6.12228 15.0568 5.61461 14.8144 5.13113 14.5289C5.25837 14.4366 5.38282 14.3415 5.50307 14.2493C6.90988 14.9108 8.44534 15.2539 9.99994 15.2539C11.5546 15.2539 13.09 14.9108 14.4968 14.2493C14.6185 14.3485 14.7429 14.4436 14.8688 14.5289C14.3843 14.8149 13.8757 15.0577 13.3488 15.2546C13.6254 15.7983 13.9477 16.3176 14.3122 16.8067C15.9311 16.3186 17.4537 15.5551 18.8133 14.5499C19.1825 10.7214 18.1827 7.40336 16.1706 4.46141ZM7.04677 12.5182C6.17005 12.5182 5.44574 11.7226 5.44574 10.7438C5.44574 9.76503 6.14488 8.96242 7.04398 8.96242C7.94307 8.96242 8.66179 9.76503 8.64641 10.7438C8.63103 11.7226 7.94028 12.5182 7.04677 12.5182ZM12.9531 12.5182C12.075 12.5182 11.3535 11.7226 11.3535 10.7438C11.3535 9.76503 12.0526 8.96242 12.9531 8.96242C13.8536 8.96242 14.5667 9.76503 14.5513 10.7438C14.536 11.7226 13.8466 12.5182 12.9531 12.5182Z" fill="white"/>
</g>
</svg>
