<svg width="18" height="18" viewBox="0 0 18 18" fill="none" xmlns="http://www.w3.org/2000/svg">
<g id="Frame" clip-path="url(#clip0_4308_576)">
<g id="Group">
<path id="Vector" fill-rule="evenodd" clip-rule="evenodd" d="M6.63793 1.64859C7.80649 0.0507303 10.1919 0.0507303 11.3604 1.64859C11.4919 1.82849 11.6704 1.96876 11.8763 2.05407C12.0821 2.13937 12.3075 2.16642 12.5277 2.13225C14.4841 1.82859 16.1707 3.51519 15.8671 5.47161C15.8329 5.69181 15.8599 5.91716 15.9452 6.12304C16.0304 6.32891 16.1707 6.50737 16.3506 6.63891C17.9488 7.80747 17.9488 10.1928 16.3506 11.3614C16.1707 11.4929 16.0304 11.6714 15.9452 11.8773C15.8599 12.0831 15.8329 12.3085 15.8671 12.5287C16.1707 14.4851 14.4841 16.1717 12.5277 15.8681C12.3075 15.8339 12.0822 15.8609 11.8763 15.9462C11.6704 16.0314 11.492 16.1717 11.3604 16.3515C10.1919 17.9498 7.80649 17.9498 6.63793 16.3515C6.5064 16.1717 6.32793 16.0314 6.12206 15.9462C5.91619 15.8609 5.69083 15.8339 5.47063 15.8681C3.51421 16.1717 1.82743 14.4851 2.13127 12.5287C2.16544 12.3085 2.13839 12.0831 2.05309 11.8772C1.96779 11.6714 1.82752 11.4929 1.64761 11.3614C0.0497538 10.1928 0.0497538 7.80747 1.64761 6.63891C1.8275 6.50738 1.96776 6.32892 2.05306 6.12305C2.13836 5.91718 2.16542 5.69182 2.13127 5.47161C1.82761 3.51519 3.51421 1.82841 5.47063 2.13225C5.69085 2.1664 5.91621 2.13934 6.12208 2.05404C6.32795 1.96874 6.5064 1.82848 6.63793 1.64859ZM12.8422 7.22013C12.9954 7.05297 13.076 6.83179 13.0661 6.60523C13.0563 6.37867 12.9569 6.1653 12.7897 6.01206C12.6225 5.85882 12.4014 5.77826 12.1748 5.7881C11.9482 5.79794 11.7349 5.89737 11.5816 6.06453L8.37709 9.50163L7.44649 8.68263C7.27899 8.53225 7.05895 8.454 6.83411 8.46484C6.60928 8.47569 6.39779 8.57476 6.24554 8.74056C6.09329 8.90636 6.01257 9.12552 6.0209 9.35046C6.02922 9.5754 6.12591 9.78799 6.28999 9.94209L7.85077 11.34C7.93352 11.416 8.03044 11.4749 8.13598 11.5134C8.24152 11.552 8.35362 11.5693 8.46587 11.5645C8.57811 11.5597 8.68831 11.5328 8.79017 11.4854C8.89202 11.438 8.98353 11.3709 9.05947 11.2881L12.8422 7.22013Z" fill="#FF6600"/>
</g>
</g>
<defs>
<clipPath id="clip0_4308_576">
<rect width="18" height="18" fill="white"/>
</clipPath>
</defs>
</svg>
